<?xml version="1.0" encoding="UTF-8"?>
<svg id="Camada_1" data-name="Camada 1" xmlns="http://www.w3.org/2000/svg" viewBox="0 0 1080 1028.56">
  <defs>
    <style>
      .cls-1 {
        fill: #00ce7c;
      }
    </style>
  </defs>
  <path class="cls-1" d="M1061.21,517.56h0c10.95.02,19.59-9.26,18.73-20.18C1072.4,401.83,1012.5,0,538.55,0S37.04,370.88,37.38,492.32c.03,10.33-8.36,18.7-18.69,18.69h0c-10.85-.02-19.41,9.14-18.64,19.96,6.78,95.16,63.53,497.61,538.51,497.61,432.8,0,499.24-340.39,503.89-492.84.31-10.15,8.61-18.18,18.76-18.16ZM154.55,515.04c4.57-57.9,1.52-341.33,384-341.33s387.05,283.43,387.05,341.33-24.39,339.81-387.05,339.81c-396.19,0-379.43-281.9-384-339.81Z"/>
</svg>